HIERARCHY
ROOT Hips
{
	OFFSET 0.00000 0.00000 0.00000
	CHANNELS 6 Xposition Yposition Zposition Zrotation Yrotation Xrotation 
	JOINT LHipJoint
	{
		OFFSET 0 0 0
		CHANNELS 3 Zrotation Yrotation Xrotation
		JOINT LeftUpLeg
		{
			OFFSET 1.57314 -1.85774 0.63783
			CHANNELS 3 Zrotation Yrotation Xrotation
			JOINT LeftLeg
			{
				OFFSET 2.57982 -7.08799 0.00000
				CHANNELS 3 Zrotation Yrotation Xrotation
				JOINT LeftFoot
				{
					OFFSET 2.63993 -7.25315 0.00000
					CHANNELS 3 Zrotation Yrotation Xrotation
					JOINT LeftToeBase
					{
						OFFSET 0.16864 -0.46332 2.12791
						CHANNELS 3 Zrotation Yrotation Xrotation
						End Site
						{
							OFFSET 0.00000 -0.00000 1.09718
						}
					}
				}
			}
		}
	}
	JOINT RHipJoint
	{
		OFFSET 0 0 0
		CHANNELS 3 Zrotation Yrotation Xrotation
		JOINT RightUpLeg
		{
			OFFSET -1.56006 -1.85774 0.63784
			CHANNELS 3 Zrotation Yrotation Xrotation
			JOINT RightLeg
			{
				OFFSET -2.54246 -6.98536 0.00000
				CHANNELS 3 Zrotation Yrotation Xrotation
				JOINT RightFoot
				{
					OFFSET -2.65791 -7.30256 0.00000
					CHANNELS 3 Zrotation Yrotation Xrotation
					JOINT RightToeBase
					{
						OFFSET -0.18435 -0.50650 2.16316
						CHANNELS 3 Zrotation Yrotation Xrotation
						End Site
						{
							OFFSET -0.00000 -0.00000 1.11780
						}
					}
				}
			}
		}
	}
	JOINT LowerBack
	{
		OFFSET 0 0 0
		CHANNELS 3 Zrotation Yrotation Xrotation
		JOINT Spine
		{
			OFFSET -0.00136 1.92812 -0.29638
			CHANNELS 3 Zrotation Yrotation Xrotation
			JOINT Spine1
			{
				OFFSET -0.00528 1.96223 -0.02928
				CHANNELS 3 Zrotation Yrotation Xrotation
				JOINT Neck
				{
					OFFSET 0 0 0
					CHANNELS 3 Zrotation Yrotation Xrotation
					JOINT Neck1
					{
						OFFSET -0.01015 1.75586 0.07797
						CHANNELS 3 Zrotation Yrotation Xrotation
						JOINT Head
						{
							OFFSET 0.05540 1.72452 0.04558
							CHANNELS 3 Zrotation Yrotation Xrotation
							End Site
							{
								OFFSET 0.02170 1.79958 0.00864
							}
						}
					}
				}
				JOINT LeftShoulder
				{
					OFFSET 0 0 0
					CHANNELS 3 Zrotation Yrotation Xrotation
					JOINT LeftArm
					{
						OFFSET 3.16292 1.29277 -0.65728
						CHANNELS 3 Zrotation Yrotation Xrotation
						JOINT LeftForeArm
						{
							OFFSET 5.52302 -0.00000 -0.00000
							CHANNELS 3 Zrotation Yrotation Xrotation
							JOINT LeftHand
							{
								OFFSET 3.58675 -0.00000 -0.00000
								CHANNELS 3 Zrotation Yrotation Xrotation
								JOINT LeftFingerBase
								{
									OFFSET 0 0 0
									CHANNELS 3 Zrotation Yrotation Xrotation
									JOINT LeftHandIndex1
									{
										OFFSET 0.53641 -0.00000 -0.00000
										CHANNELS 3 Zrotation Yrotation Xrotation
										End Site
										{
											OFFSET 0.43247 -0.00000 -0.00000
										}
									}
								}
								JOINT LThumb
								{
									OFFSET 0 0 0
									CHANNELS 3 Zrotation Yrotation Xrotation
									End Site
									{
										OFFSET 0.43907 -0.00000 0.43907
									}
								}
							}
						}
					}
				}
				JOINT RightShoulder
				{
					OFFSET 0 0 0
					CHANNELS 3 Zrotation Yrotation Xrotation
					JOINT RightArm
					{
						OFFSET -3.08296 1.43376 -0.52927
						CHANNELS 3 Zrotation Yrotation Xrotation
						JOINT RightForeArm
						{
							OFFSET -5.84780 -0.00000 0.00000
							CHANNELS 3 Zrotation Yrotation Xrotation
							JOINT RightHand
							{
								OFFSET -3.62717 -0.00000 -0.00000
								CHANNELS 3 Zrotation Yrotation Xrotation
								JOINT RightFingerBase
								{
									OFFSET 0 0 0
									CHANNELS 3 Zrotation Yrotation Xrotation
									JOINT RightHandIndex1
									{
										OFFSET -0.65052 -0.00000 -0.00000
										CHANNELS 3 Zrotation Yrotation Xrotation
										End Site
										{
											OFFSET -0.52446 -0.00000 -0.00000
										}
									}
								}
								JOINT RThumb
								{
									OFFSET 0 0 0
									CHANNELS 3 Zrotation Yrotation Xrotation
									End Site
									{
										OFFSET -0.53247 -0.00000 0.53247
									}
								}
							}
						}
					}
				}
			}
		}
	}
}
MOTION
Frames: 9
Frame Time: .0083333
0.0540 18.3276 7.2739 5.5094 1.8210 4.2151 0.0000 0.0000 0.0000 -28.6502 5.2341 22.8606 0.1197 2.2307 6.1438 1.5884 10.1842 22.6545 1.2674 -7.1359 -20.1185 0.0000 0.0000 0.0000 9.6877 13.2472 -42.3906 -14.2486 -19.1877 72.9623 0.0151 -2.7472 0.7844 -0.0016 0.2617 -0.7190 -8.0630 -3.5152 15.1105 -1.3569 -6.1960 -0.1629 4.3802 -2.6967 -7.9526 0.0022 3.1236 -5.6977 -2.7771 4.0803 -5.2609 -0.8000 2.0462 -0.6141 0.0000 0.0000 0.0000 -82.7390 -13.7376 44.8625 138.1559 -49.1253 -100.1774 -0.0000 0.0000 -32.9832 33.6797 6.3267 4.2001 -7.1250 0.0000 -0.0000 5.9218 37.5099 -1.0963 0.0000 0.0000 0.0000 81.3019 -33.4771 28.2116 -74.7169 59.0988 -46.8045 0.0000 -0.0000 -6.5842 -44.6031 13.8204 -13.2567 7.1250 -0.0000 -0.0000 -11.3531 -11.2028 -9.1164
0.0668 18.3918 7.8350 5.4876 1.3016 4.3087 0.0000 0.0000 0.0000 -28.0244 6.5452 26.9917 0.0000 -0.0000 -0.0000 2.2954 14.4722 27.5999 0.9769 -6.2918 -17.6334 0.0000 0.0000 0.0000 9.6694 14.3770 -41.8028 -12.5815 -18.6258 67.8206 0.0220 -2.7809 -0.0443 -0.0304 1.1251 -3.0932 -7.9916 -3.4677 14.7973 -1.2597 -6.1028 -0.4387 4.4138 -2.6402 -8.0856 0.3354 3.0966 -5.6391 -3.0907 4.0359 -4.5778 -0.9447 2.0132 -0.4013 0.0000 0.0000 0.0000 -82.6646 -12.8965 45.9429 138.9371 -48.6871 -100.7662 -0.0000 0.0000 -32.6682 33.1632 5.4637 3.5603 -7.1250 0.0000 -0.0000 5.4547 36.4515 -1.1509 0.0000 0.0000 0.0000 81.3823 -34.5805 27.9430 -75.7031 59.2134 -47.6512 0.0000 -0.0000 -7.3550 -39.8684 25.1998 -19.5757 7.1250 -0.0000 -0.0000 -6.0580 1.3764 -6.2364
0.0822 18.4632 8.3788 5.2794 0.7316 4.5697 0.0000 0.0000 0.0000 -27.7391 6.8152 27.7360 0.0000 -0.0000 -0.0000 2.6383 16.9044 29.8706 0.5860 -4.9012 -13.6270 0.0000 0.0000 0.0000 9.8081 15.6108 -41.2429 -10.9078 -17.8897 62.4817 0.0283 -3.0784 -0.3217 -0.0728 1.7401 -4.7878 -7.7082 -3.3896 14.5079 -1.1461 -5.9363 -0.7569 4.3390 -2.5517 -8.3059 0.5830 3.1314 -5.3443 -3.1842 4.0780 -4.1809 -1.0147 2.0297 -0.3194 0.0000 0.0000 0.0000 -82.4499 -12.1981 47.1092 139.5490 -48.3349 -101.2245 -0.0000 0.0000 -31.7638 33.5349 6.2131 4.1027 -7.1250 0.0000 -0.0000 5.7941 37.3648 -1.0931 0.0000 0.0000 0.0000 81.6253 -35.5848 27.5505 -76.7870 59.3299 -48.5830 0.0000 -0.0000 -7.5982 -41.4694 23.8890 -19.6922 7.1250 -0.0000 -0.0000 -7.2842 0.3894 -7.3934
0.0982 18.5427 8.9110 4.8406 0.1244 5.0757 0.0000 0.0000 0.0000 -27.2834 7.0260 28.2173 0.0000 0.0000 0.0000 2.9748 18.7803 31.9335 0.3296 -3.6898 -10.2054 0.0000 0.0000 0.0000 10.0898 17.0334 -40.7525 -9.2579 -16.9708 56.9778 0.0368 -3.5800 -0.1177 -0.1333 2.3535 -6.4835 -7.3160 -3.3553 14.1712 -0.8425 -5.7866 -1.0462 4.4049 -2.4773 -8.4533 0.4726 3.2835 -5.5541 -3.0918 4.3012 -3.6619 -0.9545 2.1365 -0.1268 0.0000 0.0000 0.0000 -82.3952 -11.7841 48.0513 140.0518 -48.0392 -101.5993 -0.0000 0.0000 -30.7906 33.5610 7.4981 4.9479 -7.1250 0.0000 -0.0000 5.8510 38.8929 -0.8839 0.0000 0.0000 0.0000 81.5039 -36.3693 27.4639 -78.5831 59.5017 -50.1292 0.0000 -0.0000 -7.7844 -41.7884 23.2255 -19.4149 7.1250 -0.0000 -0.0000 -7.6206 -0.2900 -7.6500
0.1170 18.6042 9.4524 4.9803 -0.0288 5.4376 0.0000 0.0000 0.0000 -27.4634 6.9138 29.0675 0.0000 -0.0000 -0.0000 3.1814 19.8682 33.1513 0.2961 -3.4988 -9.6706 0.0000 0.0000 0.0000 9.6959 17.8345 -39.9686 -7.7045 -15.8976 51.4912 0.0450 -4.0623 0.1508 -0.1566 2.5495 -7.0269 -7.4797 -3.4438 12.9836 -0.6947 -5.7846 -0.6166 4.5286 -2.5403 -7.2789 0.6179 3.3583 -6.2072 -3.3185 4.3902 -3.6663 -1.0363 2.1728 -0.0107 -0.0000 -0.0000 0.0000 -82.2669 -12.3164 48.7859 140.5002 -47.7708 -101.9320 -0.0000 0.0000 -30.0460 33.5652 8.3062 5.4753 -7.1250 0.0000 -0.0000 5.8706 39.8514 -0.7480 -0.0000 -0.0000 0.0000 81.5765 -35.9109 27.1154 -79.8088 59.6039 -51.1859 0.0000 -0.0000 -7.8750 -41.5358 23.1229 -19.1815 7.1250 -0.0000 -0.0000 -7.4956 -0.4999 -7.4945
0.1380 18.6538 9.9906 5.0949 -0.0391 5.6688 0.0000 0.0000 0.0000 -27.6534 6.7756 30.1311 0.0000 -0.0000 -0.0000 3.3026 19.5936 33.6744 0.2679 -3.3298 -9.1982 0.0000 0.0000 0.0000 9.3384 18.5222 -38.8293 -6.2687 -14.6838 46.0510 0.0550 -4.5363 0.2840 -0.1403 2.4137 -6.6505 -7.3956 -3.5959 12.7271 -0.5712 -5.9391 -0.5775 4.6133 -2.6292 -7.0664 0.6223 3.4360 -6.7895 -3.3979 4.4980 -3.4629 -1.0476 2.2187 0.1518 -0.0000 -0.0000 0.0000 -82.1409 -12.1554 49.4866 141.0042 -47.4636 -102.3043 -0.0000 0.0000 -29.3190 34.0513 8.7827 5.8914 -7.1250 0.0000 -0.0000 6.3105 40.4636 -0.7090 -0.0000 -0.0000 0.0000 81.5319 -35.7355 26.9284 -80.3920 59.6483 -51.6891 0.0000 -0.0000 -7.6668 -41.7820 22.5268 -18.8975 7.1250 -0.0000 -0.0000 -7.7732 -1.1301 -7.6900
0.1536 18.6894 10.5271 5.2133 -0.1269 5.8499 0.0000 0.0000 0.0000 -27.8603 6.7493 31.2474 0.0000 -0.0000 -0.0000 3.3485 18.8024 33.7513 0.1876 -2.7893 -7.6928 0.0000 0.0000 0.0000 8.8973 19.6214 -37.4745 -4.9955 -13.3787 40.8033 0.0922 -5.9883 0.6258 -0.1053 2.0924 -5.7611 -7.3586 -3.7445 12.8408 -0.4115 -6.1385 -0.7375 4.8131 -2.7105 -7.2641 0.3456 3.5973 -7.2590 -3.2695 4.7435 -3.1125 -0.9441 2.3371 0.3314 -0.0000 -0.0000 0.0000 -82.1675 -11.6841 50.1030 141.3908 -47.2240 -102.5886 -0.0000 0.0000 -28.6809 34.2113 8.9282 6.0234 -7.1250 0.0000 -0.0000 6.4561 40.6528 -0.6954 -0.0000 -0.0000 0.0000 81.1587 -35.7989 27.1705 -81.0876 59.6977 -52.2895 0.0000 -0.0000 -7.5308 -42.1511 22.9192 -19.4181 7.1250 -0.0000 -0.0000 -7.9023 -0.5310 -7.9045
0.1688 18.7178 11.0781 5.6058 -0.1391 5.7377 0.0000 0.0000 0.0000 -28.3399 6.7640 32.6041 0.0000 0.0000 0.0000 3.3278 18.2646 33.5642 0.2357 -3.1248 -8.6265 0.0000 0.0000 0.0000 8.2170 20.6419 -35.7163 -3.9148 -12.0461 35.8953 0.1723 -7.8756 0.1690 -0.1082 2.1209 -5.8399 -7.4612 -3.7519 12.9605 -0.4921 -6.1881 -0.8524 4.8098 -2.7193 -7.4492 0.3379 3.5905 -7.1900 -3.1145 4.7412 -2.8958 -0.8941 2.3359 0.3825 0.0000 0.0000 0.0000 -82.0953 -10.8894 51.0543 141.6103 -47.0864 -102.7495 -0.0000 0.0000 -27.8515 33.7814 8.3626 5.5570 -7.1250 0.0000 -0.0000 6.0626 39.9384 -0.7596 0.0000 0.0000 0.0000 81.3974 -36.1395 26.8865 -81.8825 59.7495 -52.9760 0.0000 -0.0000 -7.4235 -42.5106 24.4053 -20.7446 7.1250 -0.0000 -0.0000 -7.7685 1.3766 -8.0264
0.1936 18.7436 11.6250 6.2417 0.0441 5.5850 0.0000 0.0000 0.0000 -29.6396 6.0202 31.8915 0.0490 1.4285 3.9286 2.8890 17.0814 31.2018 0.4355 -4.2346 -11.7375 0.0000 0.0000 0.0000 7.2916 21.2936 -33.9917 -3.0478 -10.7720 31.5148 0.2930 -9.7646 -1.3867 -0.1917 2.8198 -7.7775 -7.6459 -3.7970 13.0960 -0.6989 -6.3053 -0.8543 4.7238 -2.7686 -7.5186 0.4271 3.5525 -7.1269 -2.9909 4.6809 -3.0216 -0.8745 2.3079 0.3307 0.0000 0.0000 0.0000 -81.9157 -10.1631 51.8862 141.6523 -47.0599 -102.7803 -0.0000 0.0000 -26.5992 33.1157 7.5926 4.9259 -7.1250 0.0000 -0.0000 5.4642 38.9676 -0.8149 0.0000 0.0000 0.0000 81.7986 -36.2830 26.4866 -82.5856 59.7913 -53.5834 0.0000 -0.0000 -7.3320 -42.7812 25.1900 -21.4980 7.1250 -0.0000 -0.0000 -7.7369 2.4100 -8.1287
